<?xml version="1.0" encoding="UTF-8" standalone="no"?>
<svg
   xmlns:dc="http://purl.org/dc/elements/1.1/"
   xmlns:cc="http://creativecommons.org/ns#"
   xmlns:rdf="http://www.w3.org/1999/02/22-rdf-syntax-ns#"
   xmlns:svg="http://www.w3.org/2000/svg"
   xmlns="http://www.w3.org/2000/svg"
   viewBox="0 0 213.33333 37.333332"
   height="37.333332"
   width="213.33333"
   xml:space="preserve"
   id="svg2"
   version="1.1"><metadata
     id="metadata8"><rdf:RDF><cc:Work
         rdf:about=""><dc:format>image/svg+xml</dc:format><dc:type
           rdf:resource="http://purl.org/dc/dcmitype/StillImage" /><dc:title></dc:title></cc:Work></rdf:RDF></metadata><defs
     id="defs6" /><g
     transform="matrix(1.3333333,0,0,-1.3333333,0,37.333333)"
     id="g10"><g
       transform="scale(0.1)"
       id="g12"><path
         id="path14"
         style="fill:#000000;fill-opacity:1;fill-rule:nonzero;stroke:none"
         d="m 5.82031,183.898 c 5.46879,1.524 7.19139,4.223 7.19139,10.93 v 59.652 l -7.81248,2.11 v 3.601 c 4.72266,0.618 9.67968,0.86 13.67188,0.86 h 4.5703 l 34.4883,-56.68 0.2305,0.149 v 50.351 l -7.9297,1.957 v 2.613 c 4.1093,1.25 8.1679,2.11 12.3906,2.11 4.957,0 7.2187,-0.352 10.4297,-1.36 v -2.23 c -5.4727,-1.723 -7.0703,-3.949 -7.0703,-11.641 v -65 l -5.8203,-1.371 -39.1797,64.61 -0.1602,-0.118 v -57.3 l 7.5781,-1.993 v -2.738 c -3.5976,-1.359 -7.1875,-2.109 -11.289,-2.109 -4.961,0 -8.32034,0.39 -11.28909,1.25 z" /><path
         id="path16"
         style="fill:#000000;fill-opacity:1;fill-rule:nonzero;stroke:none"
         d="m 108.012,241.48 c 13.398,0 21.437,-8.949 21.437,-23.21 0,-2.34 0,-4.84 -0.109,-7.93 H 92.7695 c 0,-13.899 8.0505,-21.949 18.3205,-21.949 6.101,0 12.781,2.109 17.5,5.308 0.238,-0.621 0.512,-1.988 0.512,-3.199 0,-5.59 -8.204,-10.781 -21.332,-10.781 -14.1411,0 -25.6997,11.011 -25.6997,28.402 0,21.559 13.0508,33.359 25.9417,33.359 z m 11.519,-24.691 c 0,12.152 -5.191,17.973 -12.5,17.973 -6.832,0 -14.0193,-8.172 -14.0193,-17.973 z" /><path
         id="path18"
         style="fill:#000000;fill-opacity:1;fill-rule:nonzero;stroke:none"
         d="m 168.629,241.359 c 2.973,0 6.601,-0.39 8.562,-0.898 v 21.84 l -8.441,3.359 v 2.731 c 5.738,1.597 11.801,2.23 15.391,2.23 h 3.98 l -0.742,-6.961 v -71.051 c 0.859,-2.5 2.351,-5.078 4.691,-7.187 -2.461,-2.262 -5.191,-3.981 -8.672,-5.863 -2.457,1.992 -4.726,4.851 -5.937,7.461 -3.981,-4.098 -10.82,-7.071 -15.902,-7.071 -12.5,0 -22.579,10.43 -22.579,26.922 0,22.301 13.559,34.488 29.649,34.488 z m 8.711,-49.379 v 41.059 c -2.11,0.742 -5.738,1.371 -9.059,1.371 -10.551,0 -18.48,-8.332 -18.48,-25.551 0,-13.519 7.078,-20.859 14.89,-20.859 4.688,0 9.797,1.641 12.649,3.98 z" /><path
         id="path20"
         style="fill:#000000;fill-opacity:1;fill-rule:nonzero;stroke:none"
         d="m 228.91,241.48 c 13.391,0 21.442,-8.949 21.442,-23.21 0,-2.34 0,-4.84 -0.122,-7.93 h -36.601 c 0,-13.899 8.09,-21.949 18.359,-21.949 6.102,0 12.782,2.109 17.5,5.308 0.242,-0.621 0.512,-1.988 0.512,-3.199 0,-5.59 -8.199,-10.781 -21.328,-10.781 -14.141,0 -25.703,11.011 -25.703,28.402 0,21.559 13.051,33.359 25.941,33.359 z m 11.52,-24.691 c 0,12.152 -5.2,17.973 -12.5,17.973 -6.84,0 -14.02,-8.172 -14.02,-17.973 z" /><path
         id="path22"
         style="fill:#000000;fill-opacity:1;fill-rule:nonzero;stroke:none"
         d="m 261.02,183.66 c 3.242,1.25 6.558,3.711 6.558,6.719 v 41.922 l -8.047,3.359 v 2.692 c 5.699,1.636 11.289,2.269 14.879,2.269 h 2.969 v -8.711 h 0.121 l 3.48,3.86 c 3.36,3.601 6.719,5.429 10.93,5.429 4.34,0 6.449,-1.828 6.449,-5.308 0,-2.34 -0.738,-5.082 -1.988,-7.461 -2.351,1.871 -5.082,2.851 -7.699,2.851 -3.832,0 -7.422,-1.722 -10.902,-5.082 V 186.75 l 8.558,-1.84 v -2.34 c -4.219,-1.519 -8.316,-2.109 -15.387,-2.109 -3.601,0 -7.07,0.23 -9.921,1.09 z" /><path
         id="path24"
         style="fill:#000000;fill-opacity:1;fill-rule:nonzero;stroke:none"
         d="m 303.441,183.66 c 3.2,1.25 6.559,3.711 6.559,6.719 v 71.922 l -8.051,3.359 v 2.731 c 5.551,1.597 11.41,2.23 14.891,2.23 h 3.941 l -0.621,-6.961 v -76.91 l 6.949,-1.84 v -2.34 c -4.218,-1.519 -8.16,-2.109 -14.379,-2.109 -2.96,0 -6.441,0.23 -9.289,1.09 z" /><path
         id="path26"
         style="fill:#000000;fill-opacity:1;fill-rule:nonzero;stroke:none"
         d="m 367.891,213.699 v 3.321 c 0,13.402 -3.2,16.25 -11.012,16.25 -6.84,0 -13.399,-2.848 -18.598,-8.04 -0.269,1.25 -0.39,2.34 -0.39,3.711 0,7.93 5.82,12.539 20.347,12.539 12.5,0 19.961,-6.332 19.961,-16.652 0,-2.726 -0.39,-8.898 -0.5,-12.5 l -0.359,-20.109 c 0.859,-2.231 2.738,-4.571 4.961,-6.328 -1.871,-2.231 -5.231,-4.692 -8.43,-6.332 -2.351,1.492 -4.223,3.48 -5.711,6.101 -3.469,-3.359 -10.191,-5.941 -16.75,-5.941 -9.301,0 -15.75,5.82 -15.75,13.75 0,10.902 11.918,20.23 32.231,20.23 z M 356.02,187.141 c 3.82,0 8.781,1.48 11.871,3.359 v 17.34 c -13.981,0 -21.563,-5.82 -21.563,-12.5 0,-4.961 3.363,-8.199 9.692,-8.199 z" /><path
         id="path28"
         style="fill:#000000;fill-opacity:1;fill-rule:nonzero;stroke:none"
         d="m 393.711,183.66 c 3.199,1.25 6.559,3.711 6.559,6.719 v 41.922 l -8.04,3.359 v 2.692 c 5.7,1.636 11.25,2.269 14.879,2.269 h 2.969 v -6.723 c 4.223,4.223 11.133,6.954 18.363,6.954 10.27,0 17.34,-6.563 17.34,-19.34 V 186.75 l 6.449,-1.84 v -2.34 c -3.359,-1.371 -7.699,-2.109 -13.011,-2.109 -2.617,0 -5.59,0.23 -8.09,1.09 v 2.109 c 3.133,1.371 4.492,3.711 4.492,8.211 v 23.668 c 0,12.152 -5.07,16.762 -12.422,16.762 -5.078,0 -10.039,-1.762 -12.769,-3.871 v -41.68 l 6.949,-1.84 v -2.34 c -4.219,-1.519 -8.199,-2.109 -14.367,-2.109 -2.973,0 -6.453,0.23 -9.301,1.09 z" /><path
         id="path30"
         style="fill:#000000;fill-opacity:1;fill-rule:nonzero;stroke:none"
         d="m 491.172,241.359 c 2.969,0 6.558,-0.39 8.558,-0.898 v 21.84 l -8.441,3.359 v 2.731 c 5.699,1.597 11.762,2.23 15.391,2.23 h 3.941 l -0.742,-6.961 v -71.051 c 0.859,-2.5 2.351,-5.078 4.73,-7.187 -2.5,-2.262 -5.23,-3.981 -8.711,-5.863 -2.457,1.992 -4.687,4.851 -5.937,7.461 -3.981,-4.098 -10.781,-7.071 -15.859,-7.071 -12.543,0 -22.582,10.43 -22.582,26.922 0,22.301 13.519,34.488 29.652,34.488 z m 8.668,-49.379 v 41.059 c -2.11,0.742 -5.699,1.371 -9.059,1.371 -10.551,0 -18.48,-8.332 -18.48,-25.551 0,-13.519 7.078,-20.859 14.89,-20.859 4.719,0 9.797,1.641 12.649,3.98 z" /><path
         id="path32"
         style="fill:#000000;fill-opacity:1;fill-rule:nonzero;stroke:none"
         d="m 525.859,194.949 c 5.59,-5.187 10.942,-7.808 17.5,-7.808 6.95,0 10.551,3.359 10.551,7.687 0,4.344 -2.5,7.082 -10.672,10.551 L 537.031,208 c -7.191,3.078 -11.172,8.281 -11.172,15.352 0,9.808 8.711,18.238 21.602,18.238 9.918,0 13.867,-2.969 13.867,-7.692 0,-1.878 -0.238,-3.476 -0.59,-5.199 -3.976,2.742 -9.449,4.692 -14.136,4.692 -7.973,0 -11.68,-3.442 -11.68,-7.661 0,-4.492 2.226,-6.949 9.687,-9.8 l 6.68,-2.621 c 8.941,-3.481 12.301,-8.047 12.301,-15.387 0,-9.531 -9.18,-18.203 -23.078,-18.203 -10.903,0 -15.742,3.441 -15.742,10.152 0,1.719 0.351,3.707 1.089,5.078 z" /><path
         id="path34"
         style="fill:#000000;fill-opacity:1;fill-rule:nonzero;stroke:none"
         d="m 598.398,183.898 c 4.723,1.25 7.223,3.981 7.223,9.063 v 61.289 l -7.812,3.48 v 2.731 h 46.761 l -0.898,-18.242 h -3.594 l -0.348,2.222 c -1.019,6.219 -3.25,8.68 -10.82,8.68 h -12.5 v -29.652 h 12.5 c 4.488,0 7.57,1.761 8.82,6.211 l 0.75,2.73 h 3.469 v -24.18 h -3.469 l -0.628,3.211 c -0.622,3.36 -3.082,5.348 -6.832,5.348 h -14.61 v -29.648 l 9.059,-1.993 v -2.738 c -4.098,-1.211 -9.449,-2.109 -14.77,-2.109 -4.719,0 -8.937,0.39 -12.301,1.25 z" /><path
         id="path36"
         style="fill:#000000;fill-opacity:1;fill-rule:nonzero;stroke:none"
         d="m 682.27,241.59 c 15.23,0 27.031,-11.399 27.031,-28.629 0,-20.473 -14.262,-33.402 -29.031,-33.402 -15,0 -27.18,10.55 -27.18,28.671 0,20.348 13.898,33.36 29.18,33.36 z m -1.25,-54.84 c 8.32,0 16.992,8.078 16.992,25.078 0,14.492 -7.813,22.582 -16.641,22.582 -8.562,0 -16.992,-8.558 -16.992,-24.93 0,-15.039 7.812,-22.73 16.641,-22.73 z" /><path
         id="path38"
         style="fill:#000000;fill-opacity:1;fill-rule:nonzero;stroke:none"
         d="m 720.781,183.66 c 3.239,1.25 6.598,3.711 6.598,6.719 v 41.922 l -8.078,3.359 v 2.692 c 5.699,1.636 11.289,2.269 14.879,2.269 h 3.011 v -8.711 h 0.11 l 3.48,3.86 c 3.321,3.601 6.68,5.429 10.899,5.429 4.34,0 6.441,-1.828 6.441,-5.308 0,-2.34 -0.742,-5.082 -1.992,-7.461 -2.34,1.871 -5.078,2.851 -7.688,2.851 -3.832,0 -7.421,-1.722 -10.902,-5.082 V 186.75 l 8.551,-1.84 v -2.34 c -4.211,-1.519 -8.32,-2.109 -15.391,-2.109 -3.59,0 -7.07,0.23 -9.918,1.09 z" /><path
         id="path40"
         style="fill:#000000;fill-opacity:1;fill-rule:nonzero;stroke:none"
         d="m 788.012,241.48 c 13.398,0 21.476,-8.949 21.476,-23.21 0,-2.34 0,-4.84 -0.148,-7.93 h -36.57 c 0,-13.899 8.05,-21.949 18.359,-21.949 6.062,0 12.781,2.109 17.461,5.308 0.281,-0.621 0.512,-1.988 0.512,-3.199 0,-5.59 -8.204,-10.781 -21.332,-10.781 -14.141,0 -25.661,11.011 -25.661,28.402 0,21.559 13.012,33.359 25.903,33.359 z m 11.558,-24.691 c 0,12.152 -5.23,17.973 -12.539,17.973 -6.832,0 -14.019,-8.172 -14.019,-17.973 z" /><path
         id="path42"
         style="fill:#000000;fill-opacity:1;fill-rule:nonzero;stroke:none"
         d="m 820.121,183.66 c 3.238,1.25 6.559,3.711 6.559,6.719 v 41.922 l -8.051,3.359 v 2.692 c 5.711,1.636 11.293,2.269 14.891,2.269 h 2.96 v -6.723 c 4.219,4.223 11.18,6.954 18.36,6.954 10.32,0 17.39,-6.563 17.39,-19.34 V 186.75 l 6.442,-1.84 v -2.34 c -3.363,-1.371 -7.692,-2.109 -13.051,-2.109 -2.57,0 -5.543,0.23 -8.043,1.09 v 2.109 c 3.082,1.371 4.453,3.711 4.453,8.211 v 23.668 c 0,12.152 -5.082,16.762 -12.383,16.762 -5.078,0 -10.039,-1.762 -12.769,-3.871 v -41.68 l 6.949,-1.84 v -2.34 c -4.219,-1.519 -8.207,-2.109 -14.418,-2.109 -2.961,0 -6.441,0.23 -9.289,1.09 z" /><path
         id="path44"
         style="fill:#000000;fill-opacity:1;fill-rule:nonzero;stroke:none"
         d="m 888.32,194.949 c 5.59,-5.187 10.899,-7.808 17.5,-7.808 6.91,0 10.551,3.359 10.551,7.687 0,4.344 -2.5,7.082 -10.711,10.551 L 899.488,208 c -7.187,3.078 -11.168,8.281 -11.168,15.352 0,9.808 8.668,18.238 21.559,18.238 9.922,0 13.91,-2.969 13.91,-7.692 0,-1.878 -0.238,-3.476 -0.629,-5.199 -3.941,2.742 -9.41,4.692 -14.14,4.692 -7.93,0 -11.641,-3.442 -11.641,-7.661 0,-4.492 2.23,-6.949 9.652,-9.8 l 6.719,-2.621 c 8.91,-3.481 12.27,-8.047 12.27,-15.387 0,-9.531 -9.18,-18.203 -23.051,-18.203 -10.938,0 -15.778,3.441 -15.778,10.152 0,1.719 0.387,3.707 1.129,5.078 z" /><path
         id="path46"
         style="fill:#000000;fill-opacity:1;fill-rule:nonzero;stroke:none"
         d="m 935.699,183.66 c 3.321,1.25 6.571,3.711 6.571,6.719 v 41.922 l -7.93,3.359 v 2.57 c 5.582,1.641 11.281,2.391 14.762,2.391 h 3.949 l -0.629,-6.723 V 186.75 l 6.957,-1.84 v -2.34 c -4.219,-1.519 -8.051,-2.109 -14.379,-2.109 -2.852,0 -6.449,0.23 -9.301,1.09 z m 5.199,75.43 c 0,3.832 2.731,7.308 7.071,7.308 3.48,0 6.441,-2.617 6.441,-6.679 0,-4.379 -2.961,-7.699 -6.949,-7.699 -3.711,0 -6.563,2.968 -6.563,7.07 z" /><path
         id="path48"
         style="fill:#000000;fill-opacity:1;fill-rule:nonzero;stroke:none"
         d="m 969.41,194.949 c 5.59,-5.187 10.899,-7.808 17.5,-7.808 6.918,0 10.551,3.359 10.551,7.687 0,4.344 -2.5,7.082 -10.699,10.551 L 980.59,208 c -7.192,3.078 -11.18,8.281 -11.18,15.352 0,9.808 8.68,18.238 21.57,18.238 9.92,0 13.9,-2.969 13.9,-7.692 0,-1.878 -0.23,-3.476 -0.62,-5.199 -3.95,2.742 -9.42,4.692 -14.139,4.692 -7.93,0 -11.641,-3.442 -11.641,-7.661 0,-4.492 2.219,-6.949 9.641,-9.8 l 6.719,-2.621 c 8.91,-3.481 12.27,-8.047 12.27,-15.387 0,-9.531 -9.18,-18.203 -23.051,-18.203 -10.938,0 -15.778,3.441 -15.778,10.152 0,1.719 0.391,3.707 1.129,5.078 z" /><path
         id="path50"
         style="fill:#000000;fill-opacity:1;fill-rule:nonzero;stroke:none"
         d="m 1044.8,241.359 c 10.04,0 13.4,-3.238 13.4,-7.347 0,-2.34 -0.62,-4.453 -1.48,-6.442 -4.73,3.711 -9.18,5.7 -14.38,5.7 -8.55,0 -15.89,-8.442 -15.89,-22.809 0,-14.77 7.81,-22.191 17.5,-22.191 4.84,0 10.27,2.109 14.14,4.96 0.35,-0.742 0.62,-1.992 0.62,-3.121 0,-5.82 -6.33,-10.39 -18.12,-10.39 -13.52,0 -24.93,11.25 -24.93,28.511 0,20.348 12.78,33.129 29.14,33.129 z" /><path
         id="path52"
         style="fill:#000000;fill-opacity:1;fill-rule:nonzero;stroke:none"
         d="m 1067.5,183.66 c 3.36,1.25 6.56,3.711 6.56,6.719 v 71.922 l -8.04,3.359 v 2.731 c 5.58,1.597 10.66,2.23 14.88,2.23 h 3.98 l -0.62,-6.961 v -29.648 c 4.45,4.34 10.15,6.84 17.97,6.84 10.54,0 17.38,-6.563 17.38,-19.34 V 186.75 l 6.44,-1.84 v -2.34 c -3.47,-1.371 -7.81,-2.109 -13.16,-2.109 -2.46,0 -5.59,0.23 -7.93,1.09 v 2.109 c 2.97,1.371 4.45,3.711 4.45,8.211 v 23.668 c 0,12.152 -4.96,16.762 -12.65,16.762 -4.85,0 -9.65,-1.762 -12.5,-3.871 v -41.68 l 6.91,-1.84 v -2.34 c -4.18,-1.519 -8.05,-2.109 -14.37,-2.109 -2.85,0 -6.45,0.23 -9.3,1.09 z" /><path
         id="path54"
         style="fill:#000000;fill-opacity:1;fill-rule:nonzero;stroke:none"
         d="m 1161.6,183.898 c 4.22,1.25 7.23,3.473 7.23,9.571 v 61.011 l -7.81,2 v 2.731 c 5.07,1.367 9.53,1.988 14.25,1.988 4.57,0 8.05,-0.39 11.53,-1.25 v -2.34 c -5.35,-1.531 -7.19,-3.988 -7.19,-8.949 v -61.519 l 7.81,-1.993 v -2.738 c -4.1,-1.211 -8.94,-2.109 -14.26,-2.109 -4.96,0 -8.2,0.39 -11.56,1.25 z" /><path
         id="path56"
         style="fill:#000000;fill-opacity:1;fill-rule:nonzero;stroke:none"
         d="m 1199.3,183.66 c 3.24,1.25 6.6,3.711 6.6,6.719 v 41.922 l -8.09,3.359 v 2.692 c 5.71,1.636 11.29,2.269 14.89,2.269 h 2.96 v -6.723 c 4.22,4.223 11.18,6.954 18.36,6.954 10.32,0 17.39,-6.563 17.39,-19.34 V 186.75 l 6.44,-1.84 v -2.34 c -3.36,-1.371 -7.69,-2.109 -13.05,-2.109 -2.57,0 -5.54,0.23 -8.04,1.09 v 2.109 c 3.08,1.371 4.45,3.711 4.45,8.211 v 23.668 c 0,12.152 -5.08,16.762 -12.38,16.762 -5.08,0 -10.04,-1.762 -12.78,-3.871 v -41.68 l 6.96,-1.84 v -2.34 c -4.22,-1.519 -8.21,-2.109 -14.42,-2.109 -2.97,0 -6.44,0.23 -9.29,1.09 z" /><path
         id="path58"
         style="fill:#000000;fill-opacity:1;fill-rule:nonzero;stroke:none"
         d="m 1267.5,194.949 c 5.59,-5.187 10.94,-7.808 17.5,-7.808 6.95,0 10.55,3.359 10.55,7.687 0,4.344 -2.5,7.082 -10.67,10.551 l -6.21,2.621 c -7.19,3.078 -11.17,8.281 -11.17,15.352 0,9.808 8.67,18.238 21.6,18.238 9.92,0 13.87,-2.969 13.87,-7.692 0,-1.878 -0.24,-3.476 -0.63,-5.199 -3.94,2.742 -9.41,4.692 -14.14,4.692 -7.93,0 -11.64,-3.442 -11.64,-7.661 0,-4.492 2.23,-6.949 9.69,-9.8 l 6.68,-2.621 c 8.95,-3.481 12.27,-8.047 12.27,-15.387 0,-9.531 -9.18,-18.203 -23.05,-18.203 -10.94,0 -15.74,3.441 -15.74,10.152 0,1.719 0.35,3.707 1.09,5.078 z" /><path
         id="path60"
         style="fill:#000000;fill-opacity:1;fill-rule:nonzero;stroke:none"
         d="m 1320.2,215.422 0.39,16.488 h -6.84 v 4.102 l 13.4,13.277 4.1,0.473 -0.51,-11.141 h 16.37 l -0.86,-6.711 h -15.86 l -0.27,-15.629 c -0.12,-5.203 -0.12,-9.922 -0.12,-14.492 0,-10.078 2.97,-13.519 7.58,-13.519 3.59,0 6.68,1.21 9.18,3.21 l 1.25,-0.511 c -0.51,-7.309 -4.85,-11.02 -13.4,-11.02 -9.92,0 -14.77,5.199 -14.77,17.231 0,5.98 0.24,12.539 0.36,18.242 z" /><path
         id="path62"
         style="fill:#000000;fill-opacity:1;fill-rule:nonzero;stroke:none"
         d="m 1354.06,183.66 c 3.36,1.25 6.56,3.711 6.56,6.719 v 41.922 l -7.92,3.359 v 2.57 c 5.58,1.641 11.28,2.391 14.76,2.391 h 3.95 l -0.63,-6.723 V 186.75 l 6.95,-1.84 v -2.34 c -4.21,-1.519 -8.04,-2.109 -14.37,-2.109 -2.85,0 -6.45,0.23 -9.3,1.09 z m 5.2,75.43 c 0,3.832 2.73,7.308 7.07,7.308 3.47,0 6.44,-2.617 6.44,-6.679 0,-4.379 -2.97,-7.699 -6.95,-7.699 -3.71,0 -6.56,2.968 -6.56,7.07 z" /><path
         id="path64"
         style="fill:#000000;fill-opacity:1;fill-rule:nonzero;stroke:none"
         d="m 1393.87,215.422 0.35,16.488 h -6.8 v 4.102 l 13.4,13.277 4.1,0.473 -0.51,-11.141 h 16.37 l -0.86,-6.711 h -15.9 l -0.23,-15.629 c -0.12,-5.203 -0.12,-9.922 -0.12,-14.492 0,-10.078 2.97,-13.519 7.54,-13.519 3.63,0 6.72,1.21 9.18,3.21 l 1.25,-0.511 c -0.51,-7.309 -4.84,-11.02 -13.4,-11.02 -9.92,0 -14.76,5.199 -14.76,17.231 0,5.98 0.27,12.539 0.39,18.242 z" /><path
         id="path66"
         style="fill:#000000;fill-opacity:1;fill-rule:nonzero;stroke:none"
         d="m 1433.05,232.301 -7.07,3.469 v 2.582 c 5.58,1.636 10.43,2.378 13.9,2.378 h 4.07 l -0.75,-6.949 V 205.73 c 0,-13 4.1,-17.218 12.03,-17.218 4.61,0 9.3,1.718 12.15,3.59 v 40.199 l -7.18,3.469 v 2.582 c 5.7,1.636 10.54,2.378 14.02,2.378 h 4.1 l -0.74,-6.949 v -41.91 c 0.86,-2.109 2.73,-4.34 4.69,-6.449 -1.84,-1.992 -5.32,-4.371 -8.4,-5.863 -2.5,1.761 -4.73,4.339 -5.86,7.191 -3.09,-2.852 -10.16,-6.559 -17.85,-6.559 -10.55,0 -17.11,6.09 -17.11,20.348 z" /><path
         id="path68"
         style="fill:#000000;fill-opacity:1;fill-rule:nonzero;stroke:none"
         d="m 1499.65,232.301 -7.07,3.469 v 2.582 c 5.54,1.636 10.39,2.378 13.87,2.378 h 4.1 l -0.75,-6.949 V 205.73 c 0,-13 4.11,-17.218 12.04,-17.218 4.57,0 9.29,1.718 12.14,3.59 v 40.199 l -7.18,3.469 v 2.582 c 5.7,1.636 10.54,2.378 14.02,2.378 h 4.06 l -0.74,-6.949 v -41.91 c 0.9,-2.109 2.74,-4.34 4.73,-6.449 -1.88,-1.992 -5.32,-4.371 -8.44,-5.863 -2.46,1.761 -4.73,4.339 -5.82,7.191 -3.09,-2.852 -10.16,-6.559 -17.85,-6.559 -10.55,0 -17.11,6.09 -17.11,20.348 z" /><path
         id="path70"
         style="fill:#000000;fill-opacity:1;fill-rule:nonzero;stroke:none"
         d="m 1566.21,215.422 0.39,16.488 h -6.83 v 4.102 l 13.39,13.277 4.11,0.473 -0.51,-11.141 h 16.36 l -0.85,-6.711 h -15.9 l -0.24,-15.629 c -0.11,-5.203 -0.11,-9.922 -0.11,-14.492 0,-10.078 2.96,-13.519 7.57,-13.519 3.6,0 6.68,1.21 9.18,3.21 l 1.21,-0.511 c -0.46,-7.309 -4.8,-11.02 -13.39,-11.02 -9.93,0 -14.73,5.199 -14.73,17.231 0,5.98 0.23,12.539 0.35,18.242 z" /><path
         id="path72"
         style="fill:#1d1d1b;fill-opacity:1;fill-rule:nonzero;stroke:none"
         d="m 0,43.1211 c 2.10938,0.9687 3.71094,2.3398 4.33984,4.7187 l 15.49996,66.3322 -6.6796,1.488 v 2.961 c 3.2109,0.899 9.0312,1.527 12.7812,1.527 H 30 L 40.9414,60.9688 h 0.1094 l 20.4687,59.1792 h 3.0899 c 3.0898,0 8.3203,-0.277 11.9101,-1.019 v -2.969 l -5.8203,-1.48 2.8516,-68.7112 6.8008,-1.879 v -2.4609 c -3.711,-1.25 -6.5625,-1.8672 -10.1524,-1.8672 -5.0781,0 -8.0508,0.3867 -10.8984,1.25 v 2.1094 c 2.3398,1.1289 3.8203,2.6094 3.8203,6.4375 L 62.3789,104.52 H 62.2695 L 39.6914,39.4102 35.9805,39.6406 23.8281,104.52 H 23.6719 L 11.8008,46.0781 18.8711,44.0898 V 41.6289 C 15.3906,40.2617 12.3789,39.7617 8.55078,39.7617 5.58984,39.7617 2.5,40.2617 0,41.0117 Z" /><path
         id="path74"
         style="fill:#1d1d1b;fill-opacity:1;fill-rule:nonzero;stroke:none"
         d="m 90.7813,61.7109 3.9492,25.1993 0.6211,7.3007 -7.4219,2.3399 v 2.3906 c 3.9492,1.4806 7.9297,2.1096 12.3793,2.1096 2.23,0 3.992,-0.16 5.589,-0.75 l -5.589,-36.4807 c -0.5082,-3.7109 -0.9692,-10.039 -0.9692,-13.2812 0,-4.0586 1.4802,-5.9375 4.9612,-7.0703 V 41.3594 C 101.68,40.2617 98.7109,39.6406 95,39.6406 c -3.9805,0 -5.9805,2.1094 -5.9805,5.6992 0,3.4805 1.1407,11.4102 1.7618,16.3711 z m 5.9375,57.3011 c 0,4.109 3.2421,7.699 6.9532,7.699 3.207,0 5.707,-2.5 5.707,-5.981 0,-4.179 -3.359,-7.652 -6.957,-7.652 -3.3634,0 -5.7032,2.223 -5.7032,5.934 z" /><path
         id="path76"
         style="fill:#1d1d1b;fill-opacity:1;fill-rule:nonzero;stroke:none"
         d="m 122.5,94.2109 -7.539,2.3399 v 2.3906 c 3.949,1.4806 7.66,2.1096 12.269,2.1096 1.598,0 3.36,-0.281 5.071,-0.903 L 128.32,81.1992 h 0.16 c 5.7,12.6602 13.86,20.0818 22.301,20.0818 5.469,0 9.809,-3.8318 9.809,-11.4099 0,-3.9805 -1.141,-10.3125 -1.879,-15.6211 L 156.48,60.8516 C 156.129,58 155.512,53.1602 155.512,50.5391 c 0,-4.0586 1.988,-5.711 5.816,-6.4493 V 41.9805 C 158.48,40.5 155.23,39.6406 151.41,39.6406 c -3.832,0 -6.101,2.1094 -6.101,5.6992 0,3.0899 0.902,9.1797 1.531,13.1719 l 2.34,14.25 c 0.621,3.8281 1.25,9.1797 1.25,12.5 0,5.5899 -2.5,7.4688 -5.469,7.4688 -6.949,0 -16.871,-13.4024 -17.383,-31.0196 L 126.84,40.7695 h -10.512 z" /><path
         id="path78"
         style="fill:#1d1d1b;fill-opacity:1;fill-rule:nonzero;stroke:none"
         d="m 174.449,61.7109 3.992,25.1993 0.618,7.3007 -7.457,2.3399 v 2.3906 c 3.988,1.4806 7.968,2.1096 12.418,2.1096 2.23,0 3.949,-0.16 5.589,-0.75 L 184.02,63.8203 c -0.5,-3.7109 -1.008,-10.039 -1.008,-13.2812 0,-4.0586 1.519,-5.9375 4.957,-7.0703 v -2.1094 c -2.578,-1.0977 -5.547,-1.7188 -9.297,-1.7188 -3.942,0 -5.942,2.1094 -5.942,5.6992 0,3.4805 1.098,11.4102 1.719,16.3711 z m 5.981,57.3011 c 0,4.109 3.199,7.699 6.949,7.699 3.211,0 5.711,-2.5 5.711,-5.981 0,-4.179 -3.36,-7.652 -6.961,-7.652 -3.359,0 -5.699,2.223 -5.699,5.934 z" /><path
         id="path80"
         style="fill:#1d1d1b;fill-opacity:1;fill-rule:nonzero;stroke:none"
         d="m 195.66,51.4414 c 3.481,-3.3633 7.578,-5.2422 12.149,-5.2422 5.82,0 10.55,3.3594 10.55,8.5625 0,4.0977 -1.597,6.8281 -7.699,12.2969 l -4.332,3.9531 c -5.707,5.2266 -7.308,8.5469 -7.308,14.0196 0,8.1992 7.82,16.3667 19.218,16.3667 9.063,0 13.524,-2.7378 13.524,-6.6792 0,-2.2305 -0.864,-4.8477 -2.231,-6.4493 -3.59,3.711 -8.832,6.0586 -13.511,6.0586 -5.469,0 -8.321,-2.9687 -8.321,-6.957 0,-3.5898 1.481,-5.6992 7.692,-11.293 l 4.687,-4.1679 c 5.973,-5.3594 7.973,-8.9493 7.973,-14.4219 0,-9.7969 -9.93,-18.3594 -22.973,-18.3594 -7.808,0 -11.289,2.5 -11.289,7.0703 0,2.2305 0.742,3.75 1.871,5.2422 z" /><path
         id="path82"
         style="fill:#1d1d1b;fill-opacity:1;fill-rule:nonzero;stroke:none"
         d="M 243.398,84.6797 245,92.6094 c -2.699,0 -4.34,0.1211 -6.91,0.3515 v 1.6407 c 3.941,5.5464 10.148,11.0194 16.711,14.8784 h 1.879 l -2.11,-10.1909 h 3.59 c 3.481,0 6.219,0.2695 9.539,0.8589 0,-5.3199 -2.969,-7.6597 -10.789,-7.6597 h -3.469 l -2.113,-12.9297 c -0.976,-5.9375 -2.457,-16.25 -2.457,-21.207 0,-8.1602 4.098,-11.7618 9.527,-11.7618 1.993,0 3.243,0.2383 5.122,0.8594 v -2.2187 c -1.141,-2.9688 -5.59,-5.9805 -11.45,-5.9805 -8.16,0 -12.5,5.4688 -12.5,15.2695 0,7.6993 1.84,20.5899 3.828,30.1602 z" /><path
         id="path84"
         style="fill:#1d1d1b;fill-opacity:1;fill-rule:nonzero;stroke:none"
         d="m 295.512,101.512 c 8.547,0 13.238,-4.3323 13.238,-12.7737 0,-14.6094 -14.879,-23.5469 -29.648,-23.5469 0,-15 3.988,-18.6016 11.168,-18.6016 4.5,0 10.941,2.5821 13.519,6.211 0.512,-0.5 1.25,-1.6406 1.25,-3 0,-5.9414 -7.93,-10.9024 -17.969,-10.9024 -10.429,0 -17.621,6.8321 -17.621,21.5625 0,27.9297 14.141,41.0511 26.063,41.0511 z m 3.316,-15.0003 c 0,5.8164 -2.348,8.0899 -5.937,8.0899 -5.469,0 -13.282,-9.4532 -13.282,-23.711 11.289,0 19.219,6.0899 19.219,15.6211 z" /><path
         id="path86"
         style="fill:#1d1d1b;fill-opacity:1;fill-rule:nonzero;stroke:none"
         d="m 321.52,94.2109 -7.571,2.3399 v 2.3906 c 3.981,1.4806 7.692,2.1096 12.031,2.1096 1.641,0 3.59,-0.281 5.231,-0.903 l -3.75,-17.9683 h 0.16 l 6.559,10.8984 c 3.199,5.3516 6.558,7.8129 10.429,7.8129 2.692,0 4.063,-1.7191 4.063,-4.5707 0,-1.9922 -0.473,-4.4492 -1.371,-6.4492 -1.211,0.3594 -2.461,0.5078 -3.821,0.5078 -7.82,0 -15.628,-8.5508 -16.761,-31.5195 l -0.981,-18.0899 h -10.269 z" /><path
         id="path88"
         style="fill:#1d1d1b;fill-opacity:1;fill-rule:nonzero;stroke:none"
         d="m 352.77,61.7109 3.992,25.1993 0.578,7.3007 -7.418,2.3399 v 2.3906 c 3.988,1.4806 7.93,2.1096 12.379,2.1096 2.269,0 3.988,-0.16 5.59,-0.75 l -5.59,-36.4807 c -0.461,-3.7109 -0.973,-10.039 -0.973,-13.2812 0,-4.0586 1.481,-5.9375 4.961,-7.0703 v -2.1094 c -2.617,-1.0977 -5.59,-1.7188 -9.301,-1.7188 -3.976,0 -5.937,2.1094 -5.937,5.6992 0,3.4805 1.097,11.4102 1.719,16.3711 z m 5.941,57.3011 c 0,4.109 3.238,7.699 6.949,7.699 3.25,0 5.711,-2.5 5.711,-5.981 0,-4.179 -3.359,-7.652 -6.961,-7.652 -3.32,0 -5.699,2.223 -5.699,5.934 z" /><path
         id="path90"
         style="fill:#1d1d1b;fill-opacity:1;fill-rule:nonzero;stroke:none"
         d="m 402.73,101.512 c 8.559,0 13.29,-4.3323 13.29,-12.7737 0,-14.6094 -14.891,-23.5469 -29.649,-23.5469 0,-15 3.981,-18.6016 11.168,-18.6016 4.449,0 10.902,2.5821 13.512,6.211 0.508,-0.5 1.25,-1.6406 1.25,-3 0,-5.9414 -7.922,-10.9024 -17.961,-10.9024 -10.43,0 -17.621,6.8321 -17.621,21.5625 0,27.9297 14.14,41.0511 26.011,41.0511 z m 3.36,-15.0003 c 0,5.8164 -2.34,8.0899 -5.93,8.0899 -5.469,0 -13.281,-9.4532 -13.281,-23.711 11.281,0 19.211,6.0899 19.211,15.6211 z" /><path
         id="path92"
         style="fill:#1d1d1b;fill-opacity:1;fill-rule:nonzero;stroke:none"
         d="m 443.91,94.4414 -5.32,2.1094 v 2.6211 c 3.832,1.3671 6.68,1.8791 10.16,1.8791 1.719,0 3.48,-0.281 5.078,-0.75 l 2.731,-50.7424 h 0.121 c 9.058,11.1719 15.621,28.1719 15.621,40.9414 0,3.3594 -1.602,5.3086 -4.571,6.8008 v 1.9883 c 2.11,1.1329 4.571,1.8709 7.7,1.8709 3.949,0 6.679,-2.1092 6.679,-7.4608 0,-12.7695 -12.031,-38.9375 -24.058,-50.4687 -2.352,-2.1094 -4.34,-3.4688 -6.571,-4.5703 h -2.5 z" /><path
         id="path94"
         style="fill:#1d1d1b;fill-opacity:1;fill-rule:nonzero;stroke:none"
         d="m 486.68,60.8516 c 0,25.5468 14.648,40.3084 31.519,40.3084 3.949,0 9.653,-0.859 13.75,-1.9881 l -4.328,-21.7227 c -1.492,-6.4375 -2.742,-17.9687 -2.851,-23.2773 0,-7.9727 1.601,-9.4531 5.929,-10.0821 v -2.5781 c -3.199,-1.1328 -7.179,-1.8711 -11.008,-1.8711 -1.992,0 -3.601,0.3907 -5.242,0.8594 l 2.852,18.4805 h -0.11 c -4.812,-12.2696 -12.66,-19.9688 -19.222,-19.9688 -5.821,0 -11.289,7.5781 -11.289,21.8399 z m 31.129,12.0273 3.48,20.5899 c -1.719,0.5117 -4.57,0.7421 -6.449,0.7421 -10.039,0 -18.59,-10.5507 -18.59,-31.6406 0,-10.5117 3.199,-15 6.211,-15 5.309,0 12.5,8.3203 15.348,25.3086 z" /><path
         id="path96"
         style="fill:#1d1d1b;fill-opacity:1;fill-rule:nonzero;stroke:none"
         d="M 547.578,94.2109 540,96.5508 v 2.3906 c 3.98,1.4806 7.699,2.1096 12.301,2.1096 1.609,0 3.32,-0.281 5.078,-0.903 l -3.981,-18.9488 h 0.122 c 5.699,12.6602 13.902,20.0818 22.339,20.0818 5.43,0 9.801,-3.8318 9.801,-11.4099 0,-3.9805 -1.129,-10.3125 -1.871,-15.6211 l -2.23,-13.3984 C 581.172,58 580.551,53.1602 580.551,50.5391 c 0,-4.0586 1.988,-5.711 5.859,-6.4493 v -2.1093 c -2.859,-1.4805 -6.101,-2.3399 -9.93,-2.3399 -3.859,0 -6.089,2.1094 -6.089,5.6992 0,3.0899 0.859,9.1797 1.488,13.1719 l 2.383,14.25 c 0.578,3.8281 1.207,9.1797 1.207,12.5 0,5.5899 -2.457,7.4688 -5.43,7.4688 -6.949,0 -16.879,-13.4024 -17.379,-31.0196 l -0.75,-20.9414 h -10.539 z" /><path
         id="path98"
         style="fill:#1d1d1b;fill-opacity:1;fill-rule:nonzero;stroke:none"
         d="m 619.73,54.9102 7.071,59.1408 -6.961,2 v 2.461 c 3.75,1.359 6.961,1.867 11.449,1.867 3.59,0 7.191,-0.391 9.762,-1.25 v -2.109 c -2.571,-0.86 -4.449,-2.731 -4.68,-5.309 L 629.77,56.75 c -2.86,-24.6914 -9.649,-31.3711 -17.348,-31.3711 -2.113,0 -3.981,0.2422 -5.703,1.1016 V 28 c 6.679,4.4492 11.402,12.8906 13.011,26.9102 z" /><path
         id="path100"
         style="fill:#1d1d1b;fill-opacity:1;fill-rule:nonzero;stroke:none"
         d="m 647.5,60.1094 2.852,14.6523 c 0.859,4.1797 1.878,11.1289 1.878,15 0,4.0977 -2.109,6.0469 -5.71,6.9492 v 2.0704 c 2.859,1.3667 5.941,2.2697 9.808,2.2697 3.942,0 6.051,-2.1096 6.051,-5.7112 0,-4.2187 -1.359,-12.1796 -2.578,-19.2617 l -2.731,-13.75 c -0.621,-2.7265 -1.129,-6.8281 -1.129,-9.289 0,-3.4805 1.758,-5.3477 4.329,-5.3477 5.859,0 16.14,10.4297 17.621,29.2891 l 1.371,21.4492 c 3.078,1.3711 7.297,2.3403 11.168,2.3403 L 686.949,81.4414 C 685.352,73 683.871,61.7109 683.871,54.2891 c 0,-8.211 1.481,-9.5703 5.699,-10.1993 v -2.5781 c -3.59,-1.1328 -7.34,-1.8711 -11.172,-1.8711 -1.988,0 -3.597,0.2305 -5.078,0.8594 l 3.321,16.9883 h -0.121 c -4.84,-8.5469 -13.629,-18.0781 -20.821,-18.0781 -5.469,0 -9.57,4.4492 -9.57,11.3984 0,2.8516 0.902,6.6797 1.371,9.3008 z" /><path
         id="path102"
         style="fill:#1d1d1b;fill-opacity:1;fill-rule:nonzero;stroke:none"
         d="m 695.98,51.4414 c 3.469,-3.3633 7.571,-5.2422 12.18,-5.2422 5.82,0 10.512,3.3594 10.512,8.5625 0,4.0977 -1.602,6.8281 -7.652,12.2969 l -4.379,3.9531 c -5.7,5.2266 -7.301,8.5469 -7.301,14.0196 0,8.1992 7.808,16.3667 19.211,16.3667 9.07,0 13.519,-2.7378 13.519,-6.6792 0,-2.2305 -0.859,-4.8477 -2.23,-6.4493 -3.59,3.711 -8.789,6.0586 -13.512,6.0586 -5.469,0 -8.316,-2.9687 -8.316,-6.957 0,-3.5898 1.476,-5.6992 7.687,-11.293 l 4.731,-4.1679 c 5.941,-5.3594 7.929,-8.9493 7.929,-14.4219 0,-9.7969 -9.918,-18.3594 -22.929,-18.3594 -7.809,0 -11.289,2.5 -11.289,7.0703 0,2.2305 0.738,3.75 1.839,5.2422 z" /><path
         id="path104"
         style="fill:#1d1d1b;fill-opacity:1;fill-rule:nonzero;stroke:none"
         d="m 743.75,84.6797 1.602,7.9297 c -2.731,0 -4.332,0.1211 -6.954,0.3515 v 1.6407 c 3.981,5.5464 10.153,11.0194 16.762,14.8784 h 1.828 l -2.109,-10.1909 h 3.601 c 3.469,0 6.211,0.2695 9.571,0.8589 0,-5.3199 -2.973,-7.6597 -10.781,-7.6597 h -3.481 L 751.68,79.5586 c -1.02,-5.9375 -2.5,-16.25 -2.5,-21.207 0,-8.1602 4.101,-11.7618 9.57,-11.7618 1.988,0 3.199,0.2383 5.078,0.8594 v -2.2187 c -1.129,-2.9688 -5.59,-5.9805 -11.406,-5.9805 -8.203,0 -12.543,5.4688 -12.543,15.2695 0,7.6993 1.883,20.5899 3.871,30.1602 z" /><path
         id="path106"
         style="fill:#1d1d1b;fill-opacity:1;fill-rule:nonzero;stroke:none"
         d="m 773.238,61.7109 3.992,25.1993 0.622,7.3007 -7.461,2.3399 v 2.3906 c 3.988,1.4806 7.929,2.1096 12.418,2.1096 2.23,0 3.953,-0.16 5.589,-0.75 l -5.589,-36.4807 c -0.508,-3.7109 -1.008,-10.039 -1.008,-13.2812 0,-4.0586 1.48,-5.9375 4.961,-7.0703 v -2.1094 c -2.582,-1.0977 -5.59,-1.7188 -9.301,-1.7188 -3.981,0 -5.941,2.1094 -5.941,5.6992 0,3.4805 1.101,11.4102 1.718,16.3711 z m 5.981,57.3011 c 0,4.109 3.203,7.699 6.91,7.699 3.25,0 5.711,-2.5 5.711,-5.981 0,-4.179 -3.32,-7.652 -6.918,-7.652 -3.363,0 -5.703,2.223 -5.703,5.934 z" /><path
         id="path108"
         style="fill:#1d1d1b;fill-opacity:1;fill-rule:nonzero;stroke:none"
         d="m 803.52,84.6797 1.601,7.9297 c -2.742,0 -4.34,0.1211 -6.961,0.3515 v 1.6407 c 3.988,5.5464 10.16,11.0194 16.762,14.8784 h 1.84 l -2.114,-10.1909 h 3.59 c 3.481,0 6.211,0.2695 9.571,0.8589 0,-5.3199 -2.969,-7.6597 -10.778,-7.6597 h -3.48 l -2.102,-12.9297 c -1.019,-5.9375 -2.5,-16.25 -2.5,-21.207 0,-8.1602 4.102,-11.7618 9.571,-11.7618 1.992,0 3.199,0.2383 5.07,0.8594 v -2.2187 c -1.129,-2.9688 -5.578,-5.9805 -11.399,-5.9805 -8.211,0 -12.543,5.4688 -12.543,15.2695 0,7.6993 1.872,20.5899 3.872,30.1602 z" /><path
         id="path110"
         style="fill:#1d1d1b;fill-opacity:1;fill-rule:nonzero;stroke:none"
         d="m 833.012,61.7109 3.976,25.1993 0.633,7.3007 -7.461,2.3399 v 2.3906 c 3.981,1.4806 7.93,2.1096 12.418,2.1096 2.223,0 3.942,-0.16 5.582,-0.75 l -5.582,-36.4807 c -0.508,-3.7109 -1.019,-10.039 -1.019,-13.2812 0,-4.0586 1.492,-5.9375 4.961,-7.0703 v -2.1094 c -2.571,-1.0977 -5.579,-1.7188 -9.29,-1.7188 -3.992,0 -5.941,2.1094 -5.941,5.6992 0,3.4805 1.09,11.4102 1.723,16.3711 z m 5.968,57.3011 c 0,4.109 3.211,7.699 6.918,7.699 3.243,0 5.704,-2.5 5.704,-5.981 0,-4.179 -3.321,-7.652 -6.911,-7.652 -3.363,0 -5.711,2.223 -5.711,5.934 z" /><path
         id="path112"
         style="fill:#1d1d1b;fill-opacity:1;fill-rule:nonzero;stroke:none"
         d="m 882.969,101.512 c 8.551,0 13.281,-4.3323 13.281,-12.7737 0,-14.6094 -14.879,-23.5469 -29.648,-23.5469 0,-15 3.988,-18.6016 11.168,-18.6016 4.46,0 10.902,2.5821 13.519,6.211 0.512,-0.5 1.25,-1.6406 1.25,-3 0,-5.9414 -7.93,-10.9024 -17.969,-10.9024 -10.429,0 -17.621,6.8321 -17.621,21.5625 0,27.9297 14.141,41.0511 26.02,41.0511 z m 3.359,-15.0003 c 0,5.8164 -2.348,8.0899 -5.937,8.0899 -5.469,0 -13.282,-9.4532 -13.282,-23.711 11.289,0 19.219,6.0899 19.219,15.6211 z" /><path
         id="path114"
         style="fill:#1d1d1b;fill-opacity:1;fill-rule:nonzero;stroke:none"
         d="m 947.23,101.512 c 8.551,0 13.282,-4.3323 13.282,-12.7737 0,-14.6094 -14.891,-23.5469 -29.653,-23.5469 0,-15 3.942,-18.6016 11.129,-18.6016 4.492,0 10.942,2.5821 13.563,6.211 0.469,-0.5 1.211,-1.6406 1.211,-3 0,-5.9414 -7.934,-10.9024 -17.973,-10.9024 -10.43,0 -17.617,6.8321 -17.617,21.5625 0,27.9297 14.137,41.0511 26.058,41.0511 z m 3.36,-15.0003 c 0,5.8164 -2.391,8.0899 -5.981,8.0899 -5.468,0 -13.281,-9.4532 -13.281,-23.711 11.293,0 19.262,6.0899 19.262,15.6211 z" /><path
         id="path116"
         style="fill:#1d1d1b;fill-opacity:1;fill-rule:nonzero;stroke:none"
         d="m 973.359,94.2109 -7.539,2.3399 v 2.3906 c 3.95,1.4806 7.66,2.1096 12.27,2.1096 1.601,0 3.359,-0.281 5.07,-0.903 l -3.98,-18.9488 h 0.16 c 5.699,12.6602 13.859,20.0818 22.3,20.0818 5.47,0 9.81,-3.8318 9.81,-11.4099 0,-3.9805 -1.14,-10.3125 -1.88,-15.6211 l -2.23,-13.3984 c -0.35,-2.8516 -0.97,-7.6914 -0.97,-10.3125 0,-4.0586 1.99,-5.711 5.82,-6.4493 v -2.1093 c -2.85,-1.4805 -6.1,-2.3399 -9.92,-2.3399 -3.829,0 -6.098,2.1094 -6.098,5.6992 0,3.0899 0.898,9.1797 1.527,13.1719 l 2.341,14.25 c 0.62,3.8281 1.25,9.1797 1.25,12.5 0,5.5899 -2.501,7.4688 -5.47,7.4688 -6.949,0 -16.871,-13.4024 -17.379,-31.0196 l -0.742,-20.9414 h -10.508 z" /><path
         id="path118"
         style="fill:#1d1d1b;fill-opacity:1;fill-rule:nonzero;stroke:none"
         d="m 1046.41,113.941 -5.82,2.11 v 2.461 c 3.71,1.359 6.79,1.867 10.43,1.867 3.59,0 6.28,-0.391 9.41,-1.25 v -2.109 c -2.11,-0.622 -3.24,-2.11 -3.13,-3.59 l 7.23,-60.3909 h 0.12 l 21.95,61.0119 -6.72,2 v 2.461 c 3.87,1.25 7.7,1.867 12.03,1.867 2.39,0 5.08,-0.391 7.19,-1.25 v -2.109 c -2.11,-0.622 -3.59,-1.719 -4.33,-3.59 l -28.87,-73.5589 -8.44,-0.3516 z" /><path
         id="path120"
         style="fill:#1d1d1b;fill-opacity:1;fill-rule:nonzero;stroke:none"
         d="m 1119.8,101.512 c 8.56,0 13.29,-4.3323 13.29,-12.7737 0,-14.6094 -14.89,-23.5469 -29.65,-23.5469 0,-15 3.98,-18.6016 11.17,-18.6016 4.45,0 10.9,2.5821 13.51,6.211 0.51,-0.5 1.26,-1.6406 1.26,-3 0,-5.9414 -7.93,-10.9024 -18.01,-10.9024 -10.39,0 -17.58,6.8321 -17.58,21.5625 0,27.9297 14.14,41.0511 26.01,41.0511 z m 3.36,-15.0003 c 0,5.8164 -2.34,8.0899 -5.93,8.0899 -5.47,0 -13.28,-9.4532 -13.28,-23.711 11.28,0 19.21,6.0899 19.21,15.6211 z" /><path
         id="path122"
         style="fill:#1d1d1b;fill-opacity:1;fill-rule:nonzero;stroke:none"
         d="m 1141.64,61.7109 3.98,25.1993 0.59,7.3007 -7.42,2.3399 v 2.3906 c 3.98,1.4806 7.93,2.1096 12.38,2.1096 2.27,0 3.99,-0.16 5.59,-0.75 l -5.59,-36.4807 c -0.47,-3.7109 -0.97,-10.039 -0.97,-13.2812 0,-4.0586 1.48,-5.9375 4.96,-7.0703 v -2.1094 c -2.62,-1.0977 -5.59,-1.7188 -9.3,-1.7188 -3.98,0 -5.98,2.1094 -5.98,5.6992 0,3.4805 1.14,11.4102 1.76,16.3711 z m 5.94,57.3011 c 0,4.109 3.24,7.699 6.95,7.699 3.24,0 5.7,-2.5 5.7,-5.981 0,-4.179 -3.35,-7.652 -6.95,-7.652 -3.32,0 -5.7,2.223 -5.7,5.934 z" /><path
         id="path124"
         style="fill:#1d1d1b;fill-opacity:1;fill-rule:nonzero;stroke:none"
         d="m 1169.02,61.7109 8.71,61.5191 -7.81,2.348 v 2.383 c 3.95,1.367 7.66,1.949 12.38,1.949 2.11,0 4.22,-0.23 5.71,-0.738 l -9.3,-64.9611 c -0.62,-3.9804 -0.98,-9.9218 -0.98,-13.6718 0,-4.0586 1.96,-5.9375 5.55,-7.0703 v -2.1094 c -2.58,-1.0977 -5.82,-1.7188 -9.53,-1.7188 -4.1,0 -6.21,2.1094 -6.21,5.8203 0,3.4805 0.86,11.5586 1.48,16.25 z" /><path
         id="path126"
         style="fill:#1d1d1b;fill-opacity:1;fill-rule:nonzero;stroke:none"
         d="m 1196.45,61.7109 3.98,25.1993 0.59,7.3007 -7.43,2.3399 v 2.3906 c 3.99,1.4806 7.93,2.1096 12.39,2.1096 2.26,0 3.98,-0.16 5.58,-0.75 l -5.58,-36.4807 c -0.47,-3.7109 -0.98,-10.039 -0.98,-13.2812 0,-4.0586 1.48,-5.9375 4.96,-7.0703 v -2.1094 c -2.62,-1.0977 -5.58,-1.7188 -9.3,-1.7188 -3.98,0 -5.93,2.1094 -5.93,5.6992 0,3.4805 1.09,11.4102 1.72,16.3711 z m 5.93,57.3011 c 0,4.109 3.24,7.699 6.96,7.699 3.24,0 5.7,-2.5 5.7,-5.981 0,-4.179 -3.36,-7.652 -6.95,-7.652 -3.32,0 -5.71,2.223 -5.71,5.934 z" /><path
         id="path128"
         style="fill:#1d1d1b;fill-opacity:1;fill-rule:nonzero;stroke:none"
         d="m 1219.88,24.0117 c 0,-4.8398 3.83,-8.2031 10.78,-8.2031 9.07,0 16.25,6.7227 18.01,21.1016 l 2.35,21.8281 h -0.12 c -4.73,-11.7969 -12.66,-19.6094 -19.22,-19.6094 -5.47,0 -11.29,7.0703 -11.29,22.0703 0,23.8321 13.99,39.9608 30.86,39.9608 4.84,0 10.2,-0.859 14.41,-1.9881 l -4.84,-23.8321 c -1.13,-5.9296 -1.87,-18.5898 -1.87,-25.039 0,-28.2813 -13.91,-40.31252 -30.28,-40.31252 -11.13,0 -17.73,4.83982 -17.73,11.41012 0,5.9727 6.09,10.6602 12.3,10.6602 -2.5,-2.5781 -3.36,-5.0781 -3.36,-8.0469 z m 31.76,49.7266 2.85,19.8398 c -1.99,0.5117 -4.1,0.6328 -6.21,0.6328 -9.53,0 -18.36,-10.2695 -18.36,-31.6406 0,-10.6601 3.24,-15 6.33,-15 5.2,0 12.89,8.3203 15.39,26.168 z" /><path
         id="path130"
         style="fill:#1d1d1b;fill-opacity:1;fill-rule:nonzero;stroke:none"
         d="m 1278.91,81.0508 4.1,42.1792 -7.7,2.348 v 2.383 c 3.95,1.367 8.44,1.949 12.66,1.949 2.11,0 4.06,-0.23 5.7,-0.738 l -6.6,-45.3907 h 0.16 c 5.07,10.6601 12.77,17.4997 20.82,17.4997 6.05,0 9.8,-4.5701 9.8,-11.4099 0,-4.1016 -1.01,-10.4297 -1.87,-15.6211 l -2.23,-13.0508 c -0.51,-2.9687 -0.98,-8.039 -0.98,-10.6601 0,-4.0586 1.84,-5.711 5.82,-6.4493 v -2.1093 c -2.85,-1.4805 -6.09,-2.3399 -9.92,-2.3399 -3.87,0 -6.09,2.1094 -6.09,5.6992 0,3.0899 1.01,9.5704 1.6,13.6407 l 2.27,13.7812 c 0.62,3.7188 1.21,9.6485 1.21,12.5 0,5.4688 -2.35,7.4688 -5.59,7.4688 -6.17,0 -15.23,-10.5508 -16.48,-28.2891 l -1.49,-23.6719 h -10.43 z" /><path
         id="path132"
         style="fill:#1d1d1b;fill-opacity:1;fill-rule:nonzero;stroke:none"
         d="m 1354.3,101.512 c 8.55,0 13.28,-4.3323 13.28,-12.7737 0,-14.6094 -14.88,-23.5469 -29.65,-23.5469 0,-15 3.98,-18.6016 11.17,-18.6016 4.45,0 10.9,2.5821 13.52,6.211 0.47,-0.5 1.21,-1.6406 1.21,-3 0,-5.9414 -7.93,-10.9024 -17.97,-10.9024 -10.43,0 -17.62,6.8321 -17.62,21.5625 0,27.9297 14.14,41.0511 26.06,41.0511 z m 3.36,-15.0003 c 0,5.8164 -2.39,8.0899 -5.98,8.0899 -5.43,0 -13.24,-9.4532 -13.24,-23.711 11.29,0 19.22,6.0899 19.22,15.6211 z" /><path
         id="path134"
         style="fill:#1d1d1b;fill-opacity:1;fill-rule:nonzero;stroke:none"
         d="m 1376.13,61.7109 3.95,25.1993 0.62,7.3007 -7.42,2.3399 v 2.3906 c 3.95,1.4806 7.93,2.1096 12.38,2.1096 2.23,0 3.99,-0.16 5.59,-0.75 l -5.59,-36.4807 c -0.5,-3.7109 -0.97,-10.039 -0.97,-13.2812 0,-4.0586 1.48,-5.9375 4.96,-7.0703 v -2.1094 c -2.62,-1.0977 -5.59,-1.7188 -9.3,-1.7188 -3.98,0 -5.97,2.1094 -5.97,5.6992 0,3.4805 1.13,11.4102 1.75,16.3711 z m 5.94,57.3011 c 0,4.109 3.2,7.699 6.95,7.699 3.21,0 5.71,-2.5 5.71,-5.981 0,-4.179 -3.36,-7.652 -6.96,-7.652 -3.36,0 -5.7,2.223 -5.7,5.934 z" /><path
         id="path136"
         style="fill:#1d1d1b;fill-opacity:1;fill-rule:nonzero;stroke:none"
         d="m 1399.92,60.8516 c 0,24.9179 14.26,40.3084 30.86,40.3084 1.52,0 3.36,-0.109 4.73,-0.269 l 3.59,22.339 -8.16,2.348 v 2.383 c 3.83,1.367 7.81,1.949 13.12,1.949 2.11,0 4.1,-0.23 5.71,-0.738 l -9.07,-51.3322 c -0.86,-5.1914 -2.69,-18.9804 -2.69,-23.6679 0,-8.0938 1.72,-9.4531 5.94,-10.0821 v -2.5781 c -3.83,-1.25 -6.96,-1.8711 -11.06,-1.8711 -2.11,0 -3.71,0.3907 -5.19,0.8594 l 3.08,18.75 h -0.12 c -4.57,-11.5586 -12.38,-20.2383 -19.45,-20.2383 -5.59,0 -11.29,7.3086 -11.29,21.8399 z M 1431.05,73 l 3.48,20.5781 c -1.64,0.4024 -3.98,0.6328 -5.98,0.6328 -10.27,0 -19.1,-9.6914 -19.1,-31.6406 0,-10.2695 3.01,-15 6.21,-15 4.96,0 12.78,8.0899 15.39,25.4297 z" /></g></g></svg>
